<?xml version="1.0" encoding="UTF-8" standalone="no"?>
<!-- Created with Inkscape (http://www.inkscape.org/) -->
<svg id="svg3004" xmlns:rdf="http://www.w3.org/1999/02/22-rdf-syntax-ns#" xmlns="http://www.w3.org/2000/svg" height="303.22" width="884.82" version="1.1" xmlns:cc="http://creativecommons.org/ns#" xmlns:dc="http://purl.org/dc/elements/1.1/">
 <metadata id="metadata3009">
  <rdf:RDF>
   <cc:Work rdf:about="">
    <dc:format>image/svg+xml</dc:format>
    <dc:type rdf:resource="http://purl.org/dc/dcmitype/StillImage"/>
    <dc:title/>
   </cc:Work>
  </rdf:RDF>
 </metadata>
 <g id="layer1" transform="translate(67.409285,-380.75362)">
  <path id="rect4121" fill="#245074" d="m-74.409,368.75,903.82,0,0,333.83-903.82,0z"/>
  <g id="flowRoot3892" style="writing-mode:lr-tb;letter-spacing:0px;text-anchor:start;word-spacing:0px;text-align:start;" font-family="DejaVu Serif" transform="matrix(2.7460758,0,0,2.7460758,212.51694,418.71905)" font-stretch="normal" font-size="40px" font-variant="normal" font-style="normal" font-weight="normal" line-height="125%" fill="#ececec">
   <path id="path3901" fill="#ececec" d="m61.803,33.334,0,16.983,16.983,0,0,4.9043-16.983,0,0,16.983-4.8438,0,0-16.983-16.983,0,0-4.9043,16.983,0,0-16.983,4.8438,0m43.593,63.259,102.35,0,0-22.399c0,4.0571-22.914,7.3486-51.174,7.3486-28.262,0-51.174-3.2915-51.174-7.3496v22.4m51.174-47.675c-28.262,0-51.174-3.2905-51.174-7.3475v22.399c0,4.0571,22.912,7.3486,51.174,7.3486,28.26,0,51.174-3.2915,51.174-7.3486v-22.399c0,4.0571-22.914,7.3475-51.174,7.3475zm0-47.325c-28.262,0-51.174,3.2894-51.174,7.3475v22.4c0,4.0571,22.912,7.3475,51.174,7.3475,28.26,0,51.174-3.2905,51.174-7.3475v-22.4c0-4.0581-22.914-7.3475-51.174-7.3475zm-139.7,95c0.058-16.238-13.878-42.75-29.681-42.813h-47.621c-15.805,0.06312-29.738,26.575-29.684,42.813h106.99zm-53.493-95h-0.0011c-12.485,0.049216-22.556,10.32-22.474,22.931-0.08131,12.736,9.9897,23.004,22.474,22.94h0.0011c12.484,0.06526,22.556-10.204,22.474-22.94,0.08131-12.611-9.9908-22.882-22.474-22.931z"/>
  </g>
 </g>
</svg>
